<?xml version="1.0" standalone="yes"?>
<svg width="3464" height="3464">
<path style="fill:#000000; stroke:none;" d="M0 0L0 3464L3464 3464L3464 0L0 0z"/>
<path style="fill:#ffffff; stroke:none;" d="M394 1261C425.252 1261.65 439.992 1296.57 443.155 1323C450.628 1385.45 437.443 1440.28 417 1499C403.272 1538.43 384.699 1576.13 367.309 1614C308.717 1741.6 235.878 1866.8 204.65 2005C193.394 2054.82 187.165 2115.82 210.753 2163C219.923 2181.34 233.311 2199.91 252 2209.4C277.44 2222.31 301.904 2215.44 327 2206.05C353.614 2196.1 379.904 2184.08 405 2170.78C417.825 2163.98 444.577 2151.77 449.436 2137C451.809 2129.78 449.594 2120.37 449.09 2113C448.248 2100.71 449.004 2087.25 450.17 2075C454.279 2031.82 461.788 1989.85 473.424 1948C492.973 1877.69 523.03 1809.09 557.691 1745C615.682 1637.77 685.37 1534.4 775 1450.91C817.983 1410.87 864.919 1374.05 919 1350.14C940.793 1340.5 964.075 1331.46 988 1329.17C1003.41 1327.7 1019.74 1328.94 1035 1331.13C1045.66 1332.66 1055.59 1336.64 1065 1341.77C1072.21 1345.7 1078.34 1350.99 1083.91 1357C1132.47 1409.38 1082.26 1487.56 1047.2 1531C1017 1568.41 982.947 1602.05 949 1636C928.985 1656.01 909.513 1676.55 889.961 1697C810.104 1780.51 722.609 1879.17 731.089 2003C732.698 2026.48 736.502 2049.43 743.28 2072C751.351 2098.87 764.89 2124.11 782.4 2146C805.297 2174.62 837.084 2195.86 872 2206.97C960.791 2235.22 1053.02 2216.98 1120 2150C1141.7 2128.3 1161.49 2102.32 1169.1 2072C1173.17 2055.81 1167.78 2039.48 1156.82 2027C1153.81 2023.58 1149.6 2018.13 1145 2016.93C1140.06 2015.64 1132.76 2019.94 1128 2021.29C1117.71 2024.21 1107.66 2025.25 1097 2024.99C1047.76 2023.78 1027.48 1982.71 1028 1939C1029.01 1854.17 1059.33 1770.91 1099.31 1697C1147.26 1608.34 1207.86 1511.41 1197.83 1406C1195.6 1382.56 1191.59 1359.57 1181.69 1338C1139.65 1246.43 1027.66 1240.71 942 1264.15C797.647 1303.66 680.337 1418.85 584.286 1528C555.543 1560.66 529.423 1596.03 500 1628C529.329 1552.38 554 1475.94 554 1394C554 1358.13 550.836 1322.24 536.138 1289C523.434 1260.27 499.971 1232.71 469 1223.44C448.935 1217.43 417.067 1214.03 402.61 1233.01C396.553 1240.97 394.768 1251.27 394 1261z"/>
<path style="fill:#000000; stroke:none;" d="M499.333 1628.67L499.667 1629.33L499.333 1628.67z"/>
<path style="fill:#ffffff; stroke:none;" d="M1870 2066C1870.01 2136.57 1931.48 2189.26 1997 2199.42C2015.84 2202.35 2049.97 2207.75 2064.66 2191.81C2074.79 2180.83 2069.86 2157.76 2071.17 2144C2075.35 2100.06 2079.57 2056.57 2087.42 2013C2090.77 1994.43 2092.68 1969.95 2101.1 1953C2108.7 1937.7 2122.55 1923.63 2133.83 1911C2167.42 1873.39 2207.72 1841.62 2250 1814.31C2280.93 1794.33 2318.94 1771.03 2357 1771C2341.09 1797.97 2320.78 1822.23 2303.03 1848C2261.36 1908.45 2221.32 1980.94 2218.04 2056C2216.42 2092.96 2222.2 2133.62 2244.76 2164C2282.64 2215.01 2361.32 2221.17 2418 2203.96C2470.21 2188.1 2515.93 2155.32 2555 2117.96C2569.69 2103.92 2581.82 2087.48 2596 2073C2598.48 2089.55 2609.83 2106.83 2619.63 2120C2652.68 2164.42 2704.9 2187.56 2758 2197.8C2913.9 2227.88 3075.63 2179.42 3181.28 2058C3212.2 2022.47 3240.43 1982.33 3261.24 1940C3268.62 1924.99 3279.02 1900.54 3270.76 1884.01C3266.98 1876.45 3251.99 1869.82 3244.32 1875.6C3234.89 1882.72 3227.72 1897.73 3220.2 1907C3205.55 1925.05 3188.38 1942.4 3170 1956.65C3098.43 2012.14 3007.41 2035.94 2918 2018.8C2882.04 2011.91 2838.9 1996.73 2822 1961C2849.27 1960.92 2878.49 1953.65 2905 1947.65C2977.25 1931.3 3059.44 1905.13 3109.27 1847C3149.14 1800.49 3169.16 1720.01 3108 1680.7C3068.05 1655.01 3011.92 1659.26 2967 1665.73C2847.91 1682.89 2724.45 1742.18 2649.89 1839C2631.79 1862.51 2616.12 1887.68 2604.43 1915C2598.84 1928.06 2597.65 1948.83 2589.49 1959.96C2583.68 1967.88 2572.98 1974.66 2565 1980.28C2543.18 1995.65 2519.66 2008.41 2493 2012.56C2486.27 2013.61 2477.72 2013.93 2471 2012.62C2436.49 2005.91 2439.31 1958.4 2445.63 1933C2459.91 1875.58 2485.6 1821.23 2506.42 1766C2516.37 1739.63 2528.08 1701.28 2515.48 1674C2510.7 1663.65 2499.17 1661.81 2489 1660.43C2464.15 1657.04 2437.26 1662.04 2413 1667.21C2312.23 1688.67 2215.69 1742.31 2143 1815C2152.41 1780.51 2169.64 1746.53 2184.31 1714C2188.38 1704.96 2192.42 1695.93 2196.74 1687C2198.29 1683.79 2201.58 1678.69 2201.01 1675C2198.91 1661.55 2174.21 1659 2164 1659C2125.19 1658.98 2094.31 1680.04 2065 1704.25C2018.95 1742.28 1978.06 1787.99 1945.34 1838C1929.99 1861.47 1916.47 1885.76 1904.26 1911C1899.12 1921.61 1896.29 1935.46 1889.49 1945C1882.34 1955.03 1869.88 1963.26 1860 1970.42C1831.92 1990.78 1802.19 2003.65 1769 2013C1775.07 1998.43 1783.27 1984.78 1788.94 1970C1809.39 1916.58 1822.88 1854.05 1812.58 1797C1800.53 1730.36 1743.09 1681.19 1681 1660.52C1660.97 1653.85 1639.86 1651.82 1619 1649.83C1596.72 1647.7 1572.99 1646.46 1551 1651.65C1534.64 1655.52 1519.05 1665.03 1512.04 1681C1509.41 1687 1510.89 1703.42 1505.84 1706.72C1498.42 1711.56 1487.28 1713.32 1479 1716.6C1461.48 1723.55 1444.46 1731.67 1428 1740.86C1370.52 1772.95 1320.37 1818.82 1283.03 1873C1228.76 1951.73 1200.6 2071.24 1269.72 2150C1280.33 2162.09 1293.69 2172.35 1308 2179.74C1329.96 2191.08 1353.57 2198.03 1378 2201.57C1412.94 2206.63 1449.86 2204.58 1485 2203.04C1623.08 2196.99 1763.99 2158.54 1870 2066z"/>
<path style="fill:#000000; stroke:none;" d="M2813 1904C2871.33 1899.4 2946.22 1875.97 2984.2 1829C3002.38 1806.51 3016.62 1762.01 2991.83 1738.3C2971.46 1718.82 2934.43 1728.74 2912 1738.58C2853.9 1764.06 2813.51 1842.13 2813 1904M1572 1734.56C1556.44 1737.09 1539.62 1745.54 1526 1753.14C1471.2 1783.71 1439.36 1836.98 1429.08 1898C1422.36 1937.9 1421.03 1997.49 1472 2006.08C1480.7 2007.55 1489.3 2006.88 1498 2005.71C1524.44 2002.15 1548.65 1984.32 1567 1966C1604.23 1928.82 1631.78 1883.03 1636.83 1830C1640.01 1796.61 1627.66 1762.29 1598 1744.6C1591.19 1740.55 1580.28 1733.21 1572 1734.56M2142 1815L2143 1816L2142 1815z"/>
</svg>
